<?xml version="1.0" standalone="no"?>
<!DOCTYPE svg PUBLIC "-//W3C//DTD SVG 20010904//EN"
 "http://www.w3.org/TR/2001/REC-SVG-20010904/DTD/svg10.dtd">
<svg width="20px" height="20px" viewBox="0 0 20 20" version="1.1" xmlns="http://www.w3.org/2000/svg" xmlns:xlink="http://www.w3.org/1999/xlink">
    <g id="Page-1" stroke="none" stroke-width="1" fill="none" fill-rule="evenodd">
       <g id="Qero-Account" transform="translate(-203.000000, -537.000000)" fill="#FFFFFF">
           <g id="icon_qero" transform="translate(203.000000, 537.000000)">
               <path d="M6.16453013,8.13887586 C4.87655193,8.56539358 4.62299384,10.301901 5.825376,10.4329812 C5.08811951,9.95330091 5.22297365,9.12826711 5.8915918,8.76830401 C7.98061976,7.64418023 7.9632583,10.6894599 6.62804078,11.6009336 C5.33158373,12.4856231 3.75532452,12.0696567 1.95740386,11.6549078 C2.32037953,12.2778428 2.32320581,12.4324605 1.96467144,13.2891484 C3.40849904,13.4977403 6.23922479,13.0586421 7.24094075,12.1147028 C8.95851418,10.492231 8.31331382,7.42544279 6.16453013,8.13887586 L6.16453013,8.13887586 Z M15.2837388,7.28462295 C15.2797012,7.28462295 15.2772787,7.28381131 15.2732411,7.28381131 C15.2845463,7.27163669 15.2970627,7.26067952 15.3079641,7.24809908 C14.2985768,6.53872422 13.0683355,6.12032291 11.7399818,6.12032291 C11.5853437,6.12032291 11.4331281,6.12803351 11.28172,6.13899067 C12.6633693,6.23963425 13.9186434,6.79236225 14.9013829,7.64905008 C14.9013829,7.67745754 14.9050167,7.70627082 14.9114767,7.73386664 L5.22539618,19.4202899 C2.98092258,17.2848605 2.20167558,14.9505789 1.9525588,13.2907716 L-2.84217094e-14,11.531944 L1.85323509,11.531944 C1.86736651,11.2271726 1.89441809,11.0526696 1.89441809,11.0526696 C4.35570809,-0.442611982 14.9611386,3.77062015 14.9611386,3.77062015 L20,1.5942029 L15.2837388,7.28462295 Z M4.7826087,15.2173913 C4.7826087,14.6570124 4.45865303,14.2028986 4.05835852,14.2028986 C3.65806402,14.2028986 3.33333333,14.6570124 3.33333333,15.2173913 C3.33333333,15.7777702 3.65806402,16.2318841 4.05835852,16.2318841 C4.45865303,16.2318841 4.7826087,15.7777702 4.7826087,15.2173913 Z" id="path58" transform="translate(10.000000, 10.507246) scale(1, -1) translate(-10.000000, -10.507246) "></path>
               <path d="M7.60469982,11.8272947 C8.49946729,12.391223 9.54046443,12.6745512 10.7300625,12.6745512 C12.4923276,12.6745512 13.9558099,12.0509954 15.1216951,10.8042735 C16.2863947,9.55833103 16.868942,8.03373709 16.868942,6.2312711 C16.868942,4.75812051 16.4792597,3.45644777 15.7026616,2.32391454 C15.6378463,2.22960172 15.5682884,2.1368478 15.4983353,2.04448359 C16.0615171,1.3480497 16.652364,0.673829991 17.2443966,0 C17.3692846,0.126659773 17.4898253,0.255268157 17.6064138,0.385435432 C19.0074521,1.96186245 19.7101449,3.90579767 19.7101449,6.21802054 C19.7101449,8.71107459 18.8782167,10.786736 17.2147554,12.4430561 C15.5512942,14.0993762 13.3977659,14.9275362 10.7549611,14.9275362 C8.90377256,14.9275362 7.29998881,14.5136511 5.94202899,13.6862705 C6.46608449,13.0603763 7.03598498,12.472675 7.54541752,11.840935 C7.56517829,11.8370378 7.58533427,11.8335303 7.60469982,11.8272947" id="path62" fill-rule="nonzero" transform="translate(12.826087, 7.463768) scale(1, -1) translate(-12.826087, -7.463768) "></path>
               <path d="M4.66492754,5.45390017 C4.66492754,5.35728181 4.60966184,5.2788277 4.54125604,5.2788277 C4.47323671,5.2788277 4.41719807,5.35728181 4.41719807,5.45390017 C4.41719807,5.55129147 4.47323671,5.62974558 4.54125604,5.62974558 C4.60966184,5.62974558 4.66492754,5.55129147 4.66492754,5.45390017" id="path70" fill-rule="nonzero"></path>
           </g>
       </g>
   </g>
</svg>